<?xml version="1.0" encoding="utf-8"?>
<!-- Generator: Adobe Illustrator 24.0.0, SVG Export Plug-In . SVG Version: 6.00 Build 0)  -->
<svg version="1.0" id="Layer_1" xmlns="http://www.w3.org/2000/svg" xmlns:xlink="http://www.w3.org/1999/xlink" x="0px" y="0px"
	 viewBox="0 0 120 120" style="enable-background:new 0 0 120 120;" xml:space="preserve">
<style type="text/css">
	.st0{fill:#FFF30B;}
</style>
<circle cx="387" cy="362" r="60"/>
<text transform="matrix(1 0 0 1 318 380.7554)"><tspan x="0" y="0" style="fill:#FFFFFF; font-family:'GillSansMT'; font-size:60.6595px;">Q</tspan><tspan x="49.94" y="0" style="fill:#FFFFFF; font-family:'GillSansMT'; font-size:51.206px;">n</tspan><tspan x="75.54" y="0" style="fill:#FFFFFF; font-family:'GillSansMT'; font-size:60.6595px;">A</tspan></text>
<g>
	<path class="st0" d="M82.08,51.71c-0.29-0.94-0.58-1.89-0.86-2.86c-0.29-0.97-0.52-1.82-0.7-2.54c-0.18,0.72-0.42,1.61-0.73,2.67
		c-0.31,1.06-0.59,2.07-0.86,3.02c-0.27,0.95-0.48,1.63-0.62,2.02l-2.75,8.96h10.04l-2.81-8.96C82.6,53.42,82.36,52.65,82.08,51.71z
		"/>
	<path class="st0" d="M15.47,72.7c3.49,0,5.99-1.16,7.5-3.48c1.51-2.32,2.27-5.49,2.27-9.52c0-4.03-0.76-7.2-2.27-9.52
		c-1.51-2.32-3.99-3.48-7.45-3.48s-5.95,1.16-7.5,3.48c-1.55,2.32-2.32,5.5-2.32,9.52c0,4.03,0.77,7.2,2.32,9.52
		C9.57,71.54,12.06,72.7,15.47,72.7z"/>
	<path class="st0" d="M60,0C32.05,0,8.57,19.11,1.9,44.98c0.94-1.01,2.02-1.89,3.25-2.63c2.72-1.64,6.18-2.46,10.39-2.46
		c4.17,0,7.61,0.82,10.31,2.46c2.7,1.64,4.7,3.94,6.02,6.91c1.31,2.97,1.97,6.45,1.97,10.44c0,4.32-0.77,8.06-2.32,11.22
		c-1.55,3.17-3.94,5.47-7.18,6.91l9.28,10.36H23.14l-7.07-8.63h-0.59c-4.17,0-7.62-0.83-10.33-2.48c-1.31-0.8-2.45-1.75-3.43-2.86
		C8.09,100.48,31.76,120,60,120c33.14,0,60-26.86,60-60S93.14,0,60,0z M60.76,79.01h-6.79V64.48c0-1.79-0.32-3.13-0.96-4.03
		c-0.64-0.9-1.66-1.34-3.05-1.34c-2.07,0-3.48,0.71-4.24,2.12c-0.76,1.41-1.14,3.44-1.14,6.08v11.71H37.8V54.14H43l0.91,3.19h0.36
		c0.79-1.28,1.87-2.2,3.26-2.78c1.38-0.58,2.85-0.87,4.4-0.87c2.67,0,4.81,0.72,6.42,2.16c1.61,1.44,2.41,3.76,2.41,6.95V79.01z
		 M90.33,79.01l-2.81-9.17H73.5l-2.81,9.17H61.9l13.6-38.69h9.98l13.65,38.69H90.33z"/>
</g>
<text transform="matrix(1 0 0 1 84 387.7554)"><tspan x="0" y="0" style="fill:#FFFFFF; font-family:'NotoSans-Bold'; font-size:60.6595px; letter-spacing:-3;">Q</tspan><tspan x="45.25" y="0" style="fill:#FFFFFF; font-family:'NotoSans-Bold'; font-size:51.206px; letter-spacing:-2;">n</tspan><tspan x="76.33" y="0" style="fill:#FFFFFF; font-family:'NotoSans-Bold'; font-size:60.6595px; letter-spacing:-3;">A</tspan></text>
</svg>
