<?xml version="1.0" encoding="utf-8"?>
<!-- Generator: Adobe Illustrator 24.0.0, SVG Export Plug-In . SVG Version: 6.00 Build 0)  -->
<svg version="1.0" id="Layer_1" xmlns="http://www.w3.org/2000/svg" xmlns:xlink="http://www.w3.org/1999/xlink" x="0px" y="0px"
	 viewBox="0 0 300 300" style="enable-background:new 0 0 300 300;" xml:space="preserve">
<style type="text/css">
	.st0{fill:#EFE7EC;}
	.st1{fill:#FFFFFF;}
	.st2{fill:#A99095;}
	.st3{fill:#AEB0FF;}
	.st4{fill:none;stroke:#FFFFFF;stroke-width:5;stroke-miterlimit:10;}
	.st5{fill:none;stroke:#FFFFFF;stroke-width:3;stroke-miterlimit:10;}
	.st6{fill:none;stroke:#FFFFFF;stroke-width:3;stroke-linecap:round;stroke-miterlimit:10;}
	.st7{fill:#FFFAFA;}
</style>
<circle class="st0" cx="424.41" cy="540.95" r="50"/>
<circle class="st1" cx="424.41" cy="590.95" r="30"/>
<circle class="st2" cx="424.41" cy="560.95" r="22.5"/>
<circle class="st3" cx="424.41" cy="490.95" r="22.5"/>
<circle class="st3" cx="424.41" cy="525.95" r="9"/>
<circle cx="557.73" cy="540.95" r="50"/>
<circle class="st1" cx="557.73" cy="590.95" r="30"/>
<circle cx="557.73" cy="560.95" r="22.5"/>
<circle cx="557.73" cy="490.95" r="22.5"/>
<circle class="st4" cx="557.73" cy="525.95" r="18"/>
<circle class="st1" cx="557.73" cy="525.95" r="9"/>
<line class="st5" x1="557.73" y1="543.95" x2="557.73" y2="590.95"/>
<line class="st6" x1="557.73" y1="489.02" x2="557.73" y2="507.95"/>
<g>
	<path d="M409.04-236.82c0.81-3.53,1.25-7.19,1.25-10.96c0-26.94-21.84-48.78-48.78-48.78c-26.94,0-48.78,21.84-48.78,48.78
		c0,3.77,0.44,7.44,1.25,10.96c-36.04,17.61-57.05,54.79-60.87,97.44c-3.39,37.84-17.63,69.27,21.57,88.87
		c4.6-10.45,7.99-60.41,19.44-67.84c10.23,16.89,45.1,29.06,64.14,30.32v-39.58c-22.99-1.68-41.19-20.87-41.19-44.28
		s18.2-42.6,41.19-44.28v-35.8c0-1.8,1.46-3.25,3.25-3.25c1.8,0,3.25,1.46,3.25,3.25v35.8c22.99,1.68,41.19,20.87,41.19,44.28
		s-18.2,42.6-41.19,44.28v39.58c19.04-1.26,53.91-13.42,64.14-30.32c11.45,7.44,14.84,57.39,19.44,67.84
		c39.2-19.6,25.53-51.41,21.57-88.87C465.42-181.96,445.08-219.21,409.04-236.82z"/>
	<path d="M361.51-205.51c-18.53,0-33.61,15.07-33.61,33.61s15.07,33.61,33.61,33.61c18.53,0,33.61-15.07,33.61-33.61
		S380.04-205.51,361.51-205.51z M361.51-152.39c-10.78,0-19.51-8.74-19.51-19.51c0-10.78,8.74-19.51,19.51-19.51
		c10.78,0,19.51,8.74,19.51,19.51C381.02-161.12,372.28-152.39,361.51-152.39z"/>
</g>
<g>
	<path class="st7" d="M246.51,110.66c-0.37,12.14-2.96,23.71-7.4,34.33c4.81,11.48,7.48,24.09,7.48,37.32
		c0,52.67-42.16,95.46-94.58,96.54c12.94,6.44,27.52,10.08,42.95,10.08c53.34,0,96.59-43.24,96.59-96.59
		C291.55,157.94,273.57,127.78,246.51,110.66z"/>
	<path class="st7" d="M53.41,182.3c0-13.23,2.67-25.83,7.48-37.32c8.98-21.42,25.46-38.9,46.15-49.2
		c12.94-6.44,27.52-10.08,42.95-10.08s30.01,3.64,42.95,10.08c0.67-0.01,1.34-0.05,2.01-0.05c18.96,0,36.63,5.48,51.55,14.92
		c0.03-1,0.08-1.99,0.08-2.99c0-53.34-43.24-96.59-96.59-96.59c-53.34,0-96.59,43.24-96.59,96.59c0,1,0.05,1.99,0.08,2.99
		c-27.06,17.12-45.04,47.28-45.04,81.67c0,53.34,43.24,96.59,96.59,96.59c15.43,0,30.01-3.64,42.95-10.08
		C95.58,277.77,53.41,234.97,53.41,182.3z"/>
	<path class="st7" d="M147.99,278.84c0.67,0.01,1.34,0.05,2.01,0.05c0.67,0,1.34-0.04,2.01-0.05c-0.68-0.34-1.35-0.68-2.01-1.03
		C149.33,278.16,148.66,278.5,147.99,278.84z"/>
	<path class="st7" d="M98.45,189.34c-0.03,1-0.08,1.99-0.08,2.99c0,37.1,20.93,69.3,51.62,85.48
		c30.69-16.18,51.62-48.38,51.62-85.48c0-1-0.05-1.99-0.08-2.99c-14.92,9.44-32.59,14.92-51.55,14.92S113.37,198.78,98.45,189.34z"
		/>
	<path class="st7" d="M192.95,95.79c-15.49,0.32-30.08,4.27-42.95,11.06c29.86,15.74,50.45,46.65,51.55,82.49
		c16.65-10.53,29.86-25.99,37.56-44.35C230.13,123.57,213.65,106.09,192.95,95.79z"/>
</g>
<g>
	<path class="st7" d="M-160.49,92.86c0,52.67-42.16,95.46-94.58,96.54c12.94,6.44,27.52,10.08,42.95,10.08
		c53.34,0,96.59-43.24,96.59-96.59c0-34.39-17.98-64.55-45.04-81.67c-0.37,12.14-2.96,23.71-7.4,34.33
		C-163.15,67.02-160.49,79.63-160.49,92.86z"/>
	<path class="st7" d="M-398.63,102.88c0,53.34,43.24,96.59,96.59,96.59c15.43,0,30.01-3.64,42.95-10.08
		c-52.41-1.07-94.58-43.87-94.58-96.54c0-13.23,2.67-25.83,7.48-37.32c-4.45-10.61-7.03-22.19-7.4-34.33
		C-380.65,38.33-398.63,68.5-398.63,102.88z"/>
	<path class="st7" d="M-300.03,6.35c12.94-6.44,27.52-10.08,42.95-10.08s30.01,3.64,42.95,10.08c0.67-0.01,1.34-0.05,2.01-0.05
		c18.96,0,36.63,5.48,51.55,14.92c0.03-1,0.08-1.99,0.08-2.99c0-53.34-43.24-96.59-96.59-96.59c-53.34,0-96.59,43.24-96.59,96.59
		c0,1,0.05,1.99,0.08,2.99C-338.67,11.78-321,6.3-302.04,6.3C-301.37,6.3-300.7,6.33-300.03,6.35z"/>
	<path class="st7" d="M-300.03,6.35c-0.67-0.01-1.34-0.05-2.01-0.05c-18.96,0-36.63,5.48-51.55,14.92
		c0.37,12.14,2.96,23.71,7.4,34.33C-337.21,34.12-320.72,16.64-300.03,6.35z"/>
	<path class="st7" d="M-259.09,189.39c0.67,0.01,1.34,0.05,2.01,0.05s1.34-0.04,2.01-0.05c-0.68-0.34-1.35-0.68-2.01-1.03
		C-257.74,188.72-258.41,189.06-259.09,189.39z"/>
	<path class="st7" d="M-308.62,99.89c-0.03,1-0.08,1.99-0.08,2.99c0,37.1,20.93,69.3,51.62,85.48
		c30.69-16.18,51.62-48.38,51.62-85.48c0-1-0.05-1.99-0.08-2.99c-14.92,9.44-32.59,14.92-51.55,14.92S-293.7,109.33-308.62,99.89z"
		/>
	<path class="st7" d="M-205.53,99.89c16.65-10.53,29.86-25.99,37.56-44.35c-8.98-21.42-25.46-38.9-46.15-49.2
		c-15.49,0.32-30.08,4.27-42.95,11.06C-227.22,33.14-206.62,64.06-205.53,99.89z"/>
</g>
<g>
	<path d="M553.27,74.35c0-41.56,33.27-75.33,74.63-76.18c-10.21-5.08-21.72-7.95-33.9-7.95c-42.1,0-76.22,34.12-76.22,76.22
		c0,27.13,14.19,50.94,35.54,64.45c0.29-9.58,2.33-18.71,5.84-27.09C555.37,94.74,553.27,84.79,553.27,74.35z"/>
	<path d="M741.19,66.44c0-42.1-34.12-76.22-76.22-76.22c-12.18,0-23.68,2.87-33.9,7.95c41.36,0.85,74.63,34.62,74.63,76.18
		c0,10.44-2.1,20.39-5.9,29.45c3.51,8.37,5.55,17.51,5.84,27.09C727,117.38,741.19,93.58,741.19,66.44z"/>
	<path d="M663.38,142.62c-10.21,5.08-21.72,7.95-33.9,7.95s-23.68-2.87-33.9-7.95c-0.53,0.01-1.06,0.04-1.59,0.04
		c-14.96,0-28.9-4.33-40.68-11.77c-0.02,0.79-0.06,1.57-0.06,2.36c0,42.1,34.12,76.22,76.22,76.22c42.09,0,76.22-34.12,76.22-76.22
		c0-0.79-0.04-1.57-0.06-2.36c-11.77,7.45-25.72,11.77-40.68,11.77C664.44,142.66,663.91,142.63,663.38,142.62z"/>
	<path d="M595.59,142.62c-16.33-8.12-29.33-21.92-36.42-38.82c-3.51,8.37-5.55,17.51-5.84,27.09c11.77,7.45,25.72,11.77,40.68,11.77
		C594.54,142.66,595.06,142.63,595.59,142.62z"/>
	<path d="M663.38,142.62c0.53,0.01,1.06,0.04,1.59,0.04c14.96,0,28.9-4.33,40.68-11.77c-0.29-9.58-2.33-18.71-5.84-27.09
		C692.72,120.7,679.71,134.5,663.38,142.62z"/>
	<path d="M631.08-1.83c-0.53-0.01-1.06-0.04-1.59-0.04s-1.06,0.03-1.59,0.04c0.53,0.27,1.06,0.54,1.59,0.81
		C630.01-1.29,630.54-1.56,631.08-1.83z"/>
	<path d="M553.27,74.35c0,10.44,2.1,20.39,5.9,29.45c6.07-14.49,16.5-26.69,29.64-35c-0.02-0.79-0.06-1.57-0.06-2.36
		c0-29.28,16.52-54.69,40.74-67.45c-0.53-0.28-1.05-0.55-1.59-0.81C586.54-0.98,553.27,32.79,553.27,74.35z"/>
	<path d="M670.23,66.44c0,0.79-0.04,1.57-0.06,2.36c13.14,8.31,23.57,20.51,29.64,35c3.8-9.06,5.9-19.01,5.9-29.45
		c0-41.56-33.27-75.33-74.63-76.18c-0.53,0.27-1.06,0.54-1.59,0.81C653.71,11.75,670.23,37.16,670.23,66.44z"/>
	<path d="M670.17,68.8c0.02-0.79,0.06-1.57,0.06-2.36c0-29.28-16.52-54.69-40.74-67.45c-24.22,12.77-40.74,38.17-40.74,67.45
		c0,0.79,0.04,1.57,0.06,2.36c11.77-7.45,25.72-11.77,40.68-11.77S658.39,61.35,670.17,68.8z"/>
	<path d="M595.59,142.62c10.21,5.08,21.72,7.95,33.9,7.95s23.68-2.87,33.9-7.95c-12.22-0.25-23.74-3.37-33.9-8.73
		C619.33,139.25,607.82,142.37,595.59,142.62z"/>
	<path d="M588.81,68.8c-13.14,8.31-23.57,20.51-29.64,35c7.09,16.9,20.09,30.7,36.42,38.82c12.22-0.25,23.74-3.37,33.9-8.73
		C605.93,121.48,589.67,97.08,588.81,68.8z"/>
	<path d="M670.17,68.8c-0.86,28.28-17.11,52.67-40.68,65.09c10.16,5.36,21.67,8.47,33.9,8.73c16.33-8.12,29.33-21.92,36.42-38.82
		C693.73,89.31,683.3,77.11,670.17,68.8z"/>
	<path d="M629.49,133.9c23.56-12.42,39.81-36.82,40.68-65.09c-11.77-7.45-25.72-11.77-40.68-11.77s-28.9,4.33-40.68,11.77
		C589.67,97.08,605.93,121.48,629.49,133.9z"/>
</g>
<path d="M643.21,362.66c0-41.56,33.27-75.33,74.63-76.18c-10.21-5.08-21.72-7.95-33.9-7.95c-42.1,0-76.22,34.12-76.22,76.22
	c0,27.13,14.19,50.94,35.54,64.45c0.29-9.58,2.33-18.71,5.84-27.09C645.32,383.05,643.21,373.1,643.21,362.66z"/>
<path d="M831.14,354.75c0-42.1-34.12-76.22-76.22-76.22c-12.18,0-23.68,2.87-33.9,7.95c41.36,0.85,74.63,34.62,74.63,76.18
	c0,10.44-2.1,20.39-5.9,29.45c3.51,8.37,5.55,17.51,5.84,27.09C816.95,405.69,831.14,381.89,831.14,354.75z"/>
<path d="M753.33,430.93c-10.21,5.08-21.72,7.95-33.9,7.95s-23.68-2.87-33.9-7.95c-0.53,0.01-1.06,0.04-1.59,0.04
	c-14.96,0-28.9-4.33-40.68-11.77c-0.02,0.79-0.06,1.57-0.06,2.36c0,42.1,34.12,76.22,76.22,76.22c42.09,0,76.22-34.12,76.22-76.22
	c0-0.79-0.04-1.57-0.06-2.36c-11.77,7.45-25.72,11.77-40.68,11.77C754.39,430.97,753.86,430.94,753.33,430.93z"/>
<path d="M685.54,430.93c-16.33-8.12-29.33-21.92-36.42-38.82c-3.51,8.37-5.55,17.51-5.84,27.09c11.77,7.45,25.72,11.77,40.68,11.77
	C684.48,430.97,685.01,430.94,685.54,430.93z"/>
<path d="M753.33,430.93c0.53,0.01,1.06,0.04,1.59,0.04c14.96,0,28.9-4.33,40.68-11.77c-0.29-9.58-2.33-18.71-5.84-27.09
	C782.66,409.01,769.66,422.81,753.33,430.93z"/>
<path d="M721.02,286.48c-0.53-0.01-1.06-0.04-1.59-0.04s-1.06,0.03-1.59,0.04c0.53,0.27,1.06,0.54,1.59,0.81
	C719.96,287.02,720.49,286.75,721.02,286.48z"/>
<path d="M643.21,362.66c0,10.44,2.1,20.39,5.9,29.45c6.07-14.49,16.5-26.69,29.64-35c-0.02-0.79-0.06-1.57-0.06-2.36
	c0-29.28,16.52-54.69,40.74-67.45c-0.53-0.28-1.05-0.55-1.59-0.81C676.49,287.33,643.21,321.1,643.21,362.66z"/>
<path d="M760.17,354.75c0,0.79-0.04,1.57-0.06,2.36c13.14,8.31,23.57,20.51,29.64,35c3.8-9.06,5.9-19.01,5.9-29.45
	c0-41.56-33.27-75.33-74.63-76.18c-0.53,0.27-1.06,0.54-1.59,0.81C743.65,300.06,760.17,325.47,760.17,354.75z"/>
<path d="M760.11,357.11c0.02-0.79,0.06-1.57,0.06-2.36c0-29.28-16.52-54.69-40.74-67.45c-24.22,12.77-40.74,38.17-40.74,67.45
	c0,0.79,0.04,1.57,0.06,2.36c11.77-7.45,25.72-11.77,40.68-11.77S748.34,349.66,760.11,357.11z"/>
<path d="M685.54,430.93c10.21,5.08,21.72,7.95,33.9,7.95s23.68-2.87,33.9-7.95c-12.22-0.25-23.74-3.37-33.9-8.73
	C709.27,427.56,697.76,430.68,685.54,430.93z"/>
<path d="M678.76,357.11c-13.14,8.31-23.57,20.51-29.64,35c7.09,16.9,20.09,30.7,36.42,38.82c12.22-0.25,23.74-3.37,33.9-8.73
	C695.87,409.78,679.62,385.39,678.76,357.11z"/>
<path d="M760.11,357.11c-0.86,28.28-17.11,52.67-40.68,65.09c10.16,5.36,21.67,8.47,33.9,8.73c16.33-8.12,29.33-21.92,36.42-38.82
	C783.68,377.62,773.25,365.42,760.11,357.11z"/>
<path d="M719.43,422.21c23.56-12.42,39.81-36.82,40.68-65.09c-11.77-7.45-25.72-11.77-40.68-11.77s-28.9,4.33-40.68,11.77
	C679.62,385.39,695.87,409.78,719.43,422.21z"/>
<path class="st7" d="M150,193.55c15.97-8.42,26.99-24.95,27.57-44.12c-7.98-5.05-17.43-7.98-27.57-7.98
	c-10.14,0-19.59,2.93-27.57,7.98C123.01,168.59,134.03,185.13,150,193.55z"/>
</svg>
